# xmcd
#
# Track frame offsets: 
#        150
#        16021
#        51018
#        84095
#        111480
#        144778
#        227373
#        275083
#        303572
#
# Disc length: 4344 seconds
#
# Revision: 0
# Processed by: cddbd v1.5.2PL0 Copyright (c) Steve Scherf et al.
# Submitted via: ExactAudioCopy v1.0b1
#
DISCID=6710f609
DTITLE=Eric Clapton  - Blues Night London - London, England - 1990-02-
DTITLE=05 (disk 2)
DYEAR=1900
DGENRE=
TTITLE0=Money
TTITLE1=Five Long Years
TTITLE2=Something on you Mind
TTITLE3=Everything's Going Wrong
TTITLE4=Sweet Home Chicago
TTITLE5=My Time After a While
TTITLE6=Wee Wee Baby
TTITLE7=No Alibis
TTITLE8=Pretending
EXTD=
EXTT0=
EXTT1=
EXTT2=
EXTT3=
EXTT4=
EXTT5=
EXTT6=
EXTT7=
EXTT8=
PLAYORDER=
